<?xml version="1.0" encoding="UTF-8" standalone="no"?>
<!DOCTYPE svg PUBLIC "-//W3C//DTD SVG 1.1//EN" "http://www.w3.org/Graphics/SVG/1.1/DTD/svg11.dtd">
<!-- Generated by graphviz version 2.38.0 (20140413.2041)
 -->
<!-- Title: PROV Pages: 1 -->
<svg width="460pt" height="315pt" viewBox="0.00 0.00 460.00 315.00" xmlns="http://www.w3.org/2000/svg" xmlns:xlink="http://www.w3.org/1999/xlink">
<g id="graph0" class="graph" transform="scale(1 1) rotate(0) translate(4 311)">
<title>PROV</title>
<polygon fill="white" stroke="none" points="-4,4 -4,-311 456,-311 456,4 -4,4"/>
<g id="clust1" class="cluster"><title>clusterurn:uuid:ecd80921-a421-42a4-ab97-4a2155c627ae</title>
<g id="a_clust1"><a xlink:href="urn:uuid:ecd80921-a421-42a4-ab97-4a2155c627ae" xlink:title="ecd80921-a421-42a4-ab97-4a2155c627ae">
<polygon fill="none" stroke="black" points="8,-8 8,-299 444,-299 444,-8 8,-8"/>
<text text-anchor="middle" x="226" y="-15.8" font-family="Times,serif" font-size="14.00">ecd80921-a421-42a4-ab97-4a2155c627ae</text>
</a>
</g>
</g>
<!-- http://example.com/#install -->
<g id="node1" class="node"><title>http://example.com/#install</title>
<g id="a_node1"><a xlink:href="http://example.com/#install" xlink:title="install">
<polygon fill="#9fb1fc" stroke="#0000ff" points="263,-219 209,-219 209,-183 263,-183 263,-219"/>
<text text-anchor="middle" x="236" y="-197.3" font-family="Times,serif" font-size="14.00">install</text>
</a>
</g>
</g>
<!-- http://example.com/#smartMeter -->
<g id="node3" class="node"><title>http://example.com/#smartMeter</title>
<g id="a_node3"><a xlink:href="http://example.com/#smartMeter" xlink:title="smartMeter">
<ellipse fill="#fffc87" stroke="#808080" cx="146" cy="-273" rx="51.9908" ry="18"/>
<text text-anchor="middle" x="146" y="-269.3" font-family="Times,serif" font-size="14.00">smartMeter</text>
</a>
</g>
</g>
<!-- http://example.com/#install&#45;&gt;http://example.com/#smartMeter -->
<g id="edge8" class="edge"><title>http://example.com/#install-&gt;http://example.com/#smartMeter</title>
<path fill="none" stroke="black" d="M213.753,-219.303C201.797,-228.603 186.933,-240.164 174.176,-250.086"/>
<polygon fill="black" stroke="black" points="171.893,-247.427 166.149,-256.329 176.191,-252.952 171.893,-247.427"/>
<text text-anchor="middle" x="215.808" y="-232.262" font-family="Times,serif" font-size="8.00">use</text>
</g>
<!-- http://example.com/#platform -->
<g id="node5" class="node"><title>http://example.com/#platform</title>
<g id="a_node5"><a xlink:href="http://example.com/#platform" xlink:title="platform">
<ellipse fill="#fffc87" stroke="#808080" cx="331" cy="-273" rx="41.6928" ry="18"/>
<text text-anchor="middle" x="331" y="-269.3" font-family="Times,serif" font-size="14.00">platform</text>
</a>
</g>
</g>
<!-- http://example.com/#install&#45;&gt;http://example.com/#platform -->
<g id="edge9" class="edge"><title>http://example.com/#install-&gt;http://example.com/#platform</title>
<path fill="none" stroke="black" d="M259.483,-219.303C272.497,-228.892 288.774,-240.886 302.511,-251.008"/>
<polygon fill="black" stroke="black" points="300.557,-253.916 310.684,-257.03 304.71,-248.28 300.557,-253.916"/>
<text text-anchor="middle" x="273.227" y="-211.394" font-family="Times,serif" font-size="8.00">use</text>
</g>
<!-- &#45;attrs0 -->
<g id="node2" class="node"><title>-attrs0</title>
<polygon fill="none" stroke="gray" points="302.5,-147 165.5,-147 165.5,-111 308.5,-111 308.5,-141 302.5,-147"/>
<polyline fill="none" stroke="gray" points="302.5,-147 302.5,-141 "/>
<polyline fill="none" stroke="gray" points="308.5,-141 302.5,-141 "/>
<text text-anchor="start" x="176" y="-126" font-family="Times,serif" font-size="10.00">type:</text>
<text text-anchor="start" x="200" y="-126" font-family="Times,serif" font-size="10.00">sdpo:SystemInstallation</text>
</g>
<!-- &#45;attrs0&#45;&gt;http://example.com/#install -->
<g id="edge1" class="edge"><title>-attrs0-&gt;http://example.com/#install</title>
<path fill="none" stroke="gray" stroke-dasharray="5,2" d="M236.753,-147.303C236.598,-158.154 236.399,-172.083 236.244,-182.896"/>
</g>
<!-- &#45;attrs1 -->
<g id="node4" class="node"><title>-attrs1</title>
<polygon fill="none" stroke="gray" points="185,-219 101,-219 101,-183 191,-183 191,-213 185,-219"/>
<polyline fill="none" stroke="gray" points="185,-219 185,-213 "/>
<polyline fill="none" stroke="gray" points="191,-213 185,-213 "/>
<text text-anchor="start" x="111" y="-198" font-family="Times,serif" font-size="10.00">type:</text>
<text text-anchor="start" x="135" y="-198" font-family="Times,serif" font-size="10.00">ssn:System</text>
</g>
<!-- &#45;attrs1&#45;&gt;http://example.com/#smartMeter -->
<g id="edge2" class="edge"><title>-attrs1-&gt;http://example.com/#smartMeter</title>
<path fill="none" stroke="gray" stroke-dasharray="5,2" d="M146,-219.303C146,-230.154 146,-244.083 146,-254.896"/>
</g>
<!-- &#45;attrs2 -->
<g id="node6" class="node"><title>-attrs2</title>
<polygon fill="none" stroke="gray" points="374.5,-219 281.5,-219 281.5,-183 380.5,-183 380.5,-213 374.5,-219"/>
<polyline fill="none" stroke="gray" points="374.5,-219 374.5,-213 "/>
<polyline fill="none" stroke="gray" points="380.5,-213 374.5,-213 "/>
<text text-anchor="start" x="292" y="-198" font-family="Times,serif" font-size="10.00">type:</text>
<text text-anchor="start" x="316" y="-198" font-family="Times,serif" font-size="10.00">sosa:Platform</text>
</g>
<!-- &#45;attrs2&#45;&gt;http://example.com/#platform -->
<g id="edge3" class="edge"><title>-attrs2-&gt;http://example.com/#platform</title>
<path fill="none" stroke="gray" stroke-dasharray="5,2" d="M331,-219.303C331,-230.154 331,-244.083 331,-254.896"/>
</g>
<!-- http://example.com/#smartMeter_v1 -->
<g id="node7" class="node"><title>http://example.com/#smartMeter_v1</title>
<g id="a_node7"><a xlink:href="http://example.com/#smartMeter_v1" xlink:title="smartMeter_v1">
<ellipse fill="#fffc87" stroke="#808080" cx="82" cy="-129" rx="65.7887" ry="18"/>
<text text-anchor="middle" x="82" y="-125.3" font-family="Times,serif" font-size="14.00">smartMeter_v1</text>
</a>
</g>
</g>
<!-- http://example.com/#smartMeter_v1&#45;&gt;http://example.com/#install -->
<g id="edge10" class="edge"><title>http://example.com/#smartMeter_v1-&gt;http://example.com/#install</title>
<path fill="none" stroke="black" d="M115.137,-144.682C136.886,-154.363 166.153,-167.475 199.781,-182.935"/>
<polygon fill="black" stroke="black" points="198.352,-186.13 208.899,-187.135 201.281,-179.772 198.352,-186.13"/>
<text text-anchor="middle" x="127.275" y="-133.968" font-family="Times,serif" font-size="8.00">gen</text>
</g>
<!-- http://example.com/#smartMeter_v1&#45;&gt;http://example.com/#smartMeter -->
<g id="edge6" class="edge"><title>http://example.com/#smartMeter_v1-&gt;http://example.com/#smartMeter</title>
<path fill="none" stroke="black" d="M80.6333,-147C79.8579,-165.63 80.7643,-195.936 92,-219 97.708,-230.717 107.103,-241.313 116.47,-249.897"/>
<polygon fill="black" stroke="black" points="114.393,-252.728 124.249,-256.614 118.968,-247.43 114.393,-252.728"/>
<text text-anchor="middle" x="93.3984" y="-152.977" font-family="Times,serif" font-size="8.00">spe</text>
</g>
<!-- &#45;attrs3 -->
<g id="node8" class="node"><title>-attrs3</title>
<polygon fill="none" stroke="gray" points="148,-75 16,-75 16,-39 154,-39 154,-69 148,-75"/>
<polyline fill="none" stroke="gray" points="148,-75 148,-69 "/>
<polyline fill="none" stroke="gray" points="154,-69 148,-69 "/>
<text text-anchor="start" x="26" y="-54" font-family="Times,serif" font-size="10.00">isHostedBy:</text>
<text text-anchor="start" x="80" y="-54" font-family="Times,serif" font-size="10.00">ex:platform_v1</text>
</g>
<!-- &#45;attrs3&#45;&gt;http://example.com/#smartMeter_v1 -->
<g id="edge4" class="edge"><title>-attrs3-&gt;http://example.com/#smartMeter_v1</title>
<path fill="none" stroke="gray" stroke-dasharray="5,2" d="M84.2584,-75.3034C83.7934,-86.1537 83.1964,-100.083 82.733,-110.896"/>
</g>
<!-- http://example.com/#platform_v1 -->
<g id="node9" class="node"><title>http://example.com/#platform_v1</title>
<g id="a_node9"><a xlink:href="http://example.com/#platform_v1" xlink:title="platform_v1">
<ellipse fill="#fffc87" stroke="#808080" cx="381" cy="-129" rx="54.6905" ry="18"/>
<text text-anchor="middle" x="381" y="-125.3" font-family="Times,serif" font-size="14.00">platform_v1</text>
</a>
</g>
</g>
<!-- http://example.com/#platform_v1&#45;&gt;http://example.com/#install -->
<g id="edge11" class="edge"><title>http://example.com/#platform_v1-&gt;http://example.com/#install</title>
<path fill="none" stroke="black" d="M351.307,-144.334C328.486,-155.352 296.848,-170.625 272.484,-182.387"/>
<polygon fill="black" stroke="black" points="270.688,-179.367 263.204,-186.867 273.731,-185.671 270.688,-179.367"/>
<text text-anchor="middle" x="350.201" y="-157.394" font-family="Times,serif" font-size="8.00">gen</text>
</g>
<!-- http://example.com/#platform_v1&#45;&gt;http://example.com/#platform -->
<g id="edge7" class="edge"><title>http://example.com/#platform_v1-&gt;http://example.com/#platform</title>
<path fill="none" stroke="black" d="M387.559,-146.871C393.681,-165.389 400.436,-195.597 390,-219 384.191,-232.027 373.422,-243.19 362.658,-251.864"/>
<polygon fill="black" stroke="black" points="360.392,-249.189 354.511,-258.002 364.604,-254.78 360.392,-249.189"/>
<text text-anchor="middle" x="402.194" y="-148.26" font-family="Times,serif" font-size="8.00">spe</text>
</g>
<!-- &#45;attrs4 -->
<g id="node10" class="node"><title>-attrs4</title>
<polygon fill="none" stroke="gray" points="430,-75 314,-75 314,-39 436,-39 436,-69 430,-75"/>
<polyline fill="none" stroke="gray" points="430,-75 430,-69 "/>
<polyline fill="none" stroke="gray" points="436,-69 430,-69 "/>
<text text-anchor="start" x="324" y="-54" font-family="Times,serif" font-size="10.00">hosts:</text>
<text text-anchor="start" x="351" y="-54" font-family="Times,serif" font-size="10.00">ex:smartMeter_v1</text>
</g>
<!-- &#45;attrs4&#45;&gt;http://example.com/#platform_v1 -->
<g id="edge5" class="edge"><title>-attrs4-&gt;http://example.com/#platform_v1</title>
<path fill="none" stroke="gray" stroke-dasharray="5,2" d="M376.483,-75.3034C377.413,-86.1537 378.607,-100.083 379.534,-110.896"/>
</g>
</g>
</svg>